<svg width="1604" height="520" viewBox="0 0 1604 520" fill="none" xmlns="http://www.w3.org/2000/svg">
<path d="M193.596 360.478C240.326 313.865 250.061 364.087 273.704 340.501C287.436 334.223 287.296 342.326 301.532 348.692C310.883 352.873 317.037 339.023 327.11 340.501C347.897 343.55 361.128 385.925 356.723 405.102C353.125 420.764 330.501 424.738 318.729 417.469C302.074 407.184 288.934 403.211 270.017 409.73C247.712 417.416 236.476 433.483 210.827 423.932C196.665 418.658 182.194 410.772 166.754 410.448C156.568 410.234 147.269 415.424 137.879 418.666C125.706 422.869 116.543 426.598 104.605 420.102C85.8948 409.922 86.3475 386.769 69.9704 373.984C55.5222 362.705 38.3335 370.134 22.3782 365.527C3.56196 360.094 -0.580298 337.506 0.0619414 319.888C1.10546 291.262 14.0789 264.975 34.2163 244.887C48.1052 231.033 66.234 220.275 85.0079 214.568C109.724 207.054 180.244 213.977 200.271 194C210.956 211.389 149.759 248.202 138.519 252.068C128.495 255.516 126.143 268.123 120.202 275.366C111.808 285.6 108.021 307.667 109.724 320.686C114.109 354.221 186.92 327.183 193.596 360.478Z" fill="#3A7CCA"/>
<path d="M204.598 427.793C251.328 380.805 261.063 431.43 284.706 407.655C298.439 401.326 298.298 409.494 312.534 415.911C321.885 420.126 328.039 406.166 338.112 407.655C358.899 410.729 372.131 453.443 367.725 472.774C364.127 488.561 341.503 492.567 329.731 485.24C313.076 474.873 299.937 470.867 281.019 477.438C258.714 485.186 247.478 501.383 221.829 491.755C207.667 486.438 193.196 478.489 177.756 478.162C167.57 477.947 158.271 483.178 148.881 486.446C136.708 490.683 127.546 494.442 115.607 487.894C96.8969 477.633 97.3496 454.294 80.9725 441.407C66.5243 430.037 49.3356 437.526 33.3804 432.882C14.5641 427.405 10.4218 404.636 11.0641 386.877C12.1076 358.021 25.081 331.523 45.2184 311.275C59.1074 297.309 77.2362 286.465 96.01 280.712C120.726 273.138 171.219 259.98 191.246 239.842C201.931 257.371 160.761 314.616 149.521 318.513C139.497 321.989 137.145 334.697 131.204 341.998C122.81 352.314 119.024 374.558 120.726 387.681C125.111 421.485 197.922 394.23 204.598 427.793Z" fill="#274C77"/>
<path d="M301.607 420.024C331.869 427.464 369.745 426.563 393.182 402.874C406.793 396.569 402.851 386.091 416.962 392.484C426.231 396.684 406.978 373.223 416.962 374.707C434.601 377.329 441.437 423.327 426.435 450.764C473.133 394.654 446.116 476.667 435.124 469.789C418.614 459.459 396.01 479.572 377.259 486.12C355.15 493.84 353.591 485.873 328.168 476.28C314.13 470.983 299.786 463.062 284.482 462.737C274.384 462.522 265.167 467.734 255.86 470.991C243.793 475.212 234.711 478.957 222.877 472.433C204.331 462.209 204.78 438.955 188.546 426.114C174.225 414.786 157.187 422.247 141.372 417.62C122.72 412.163 118.614 389.476 119.251 371.781C120.285 343.03 133.145 316.628 153.106 296.453C166.873 282.538 184.843 271.733 203.452 266.001C227.951 258.454 297.853 265.408 317.705 245.343C328.295 262.808 267.635 299.782 256.494 303.665C246.557 307.128 244.226 319.79 238.338 327.065C230.017 337.344 226.264 359.507 227.951 372.583C232.298 406.265 275.808 413.681 301.607 420.024Z" fill="#91B3D9"/>
<path d="M397.2 140.4H444L288 0L132 140.4H178.8L288 41.964L397.2 140.4ZM210 28.236V0H163.2V70.2L210 28.236Z" fill="#274C77"/>
<path d="M478.76 220.28V344H445.64V220.28H478.76ZM482.72 185.12C482.72 187.92 482.16 190.52 481.04 192.92C479.92 195.32 478.4 197.44 476.48 199.28C474.64 201.12 472.44 202.56 469.88 203.6C467.4 204.64 464.72 205.16 461.84 205.16C459.12 205.16 456.52 204.64 454.04 203.6C451.64 202.56 449.52 201.12 447.68 199.28C445.84 197.44 444.36 195.32 443.24 192.92C442.2 190.52 441.68 187.92 441.68 185.12C441.68 182.32 442.2 179.72 443.24 177.32C444.36 174.84 445.84 172.68 447.68 170.84C449.52 169 451.64 167.56 454.04 166.52C456.52 165.48 459.12 164.96 461.84 164.96C464.72 164.96 467.4 165.48 469.88 166.52C472.44 167.56 474.64 169 476.48 170.84C478.4 172.68 479.92 174.84 481.04 177.32C482.16 179.72 482.72 182.32 482.72 185.12ZM537.744 234.68C540.224 232.28 542.784 230.08 545.424 228.08C548.144 226.08 550.984 224.36 553.944 222.92C556.984 221.48 560.224 220.36 563.664 219.56C567.184 218.76 570.984 218.36 575.064 218.36C581.784 218.36 587.744 219.52 592.944 221.84C598.144 224.16 602.504 227.4 606.024 231.56C609.624 235.72 612.304 240.68 614.064 246.44C615.904 252.2 616.824 258.52 616.824 265.4V344H583.824V265.4C583.824 258.52 582.224 253.2 579.024 249.44C575.824 245.6 571.104 243.68 564.864 243.68C560.224 243.68 555.864 244.68 551.784 246.68C547.704 248.68 543.824 251.48 540.144 255.08V344H507.024V220.28H527.424C531.584 220.28 534.344 222.2 535.704 226.04L537.744 234.68ZM707.876 292.28C699.796 292.68 693.076 293.4 687.716 294.44C682.356 295.4 678.076 296.68 674.876 298.28C671.756 299.88 669.516 301.72 668.156 303.8C666.876 305.8 666.236 308 666.236 310.4C666.236 315.2 667.556 318.6 670.196 320.6C672.916 322.6 676.676 323.6 681.476 323.6C686.996 323.6 691.756 322.64 695.756 320.72C699.836 318.72 703.876 315.64 707.876 311.48V292.28ZM640.436 237.44C647.716 230.88 655.756 226 664.556 222.8C673.356 219.52 682.876 217.88 693.116 217.88C700.476 217.88 707.036 219.08 712.796 221.48C718.636 223.88 723.556 227.24 727.556 231.56C731.636 235.8 734.756 240.88 736.916 246.8C739.076 252.72 740.156 259.2 740.156 266.24V344H725.036C721.916 344 719.516 343.56 717.836 342.68C716.236 341.8 714.916 339.96 713.876 337.16L711.236 329.24C708.116 331.96 705.076 334.36 702.116 336.44C699.236 338.52 696.236 340.28 693.116 341.72C689.996 343.08 686.636 344.12 683.036 344.84C679.516 345.56 675.556 345.92 671.156 345.92C665.716 345.92 660.756 345.2 656.276 343.76C651.796 342.32 647.916 340.2 644.636 337.4C641.436 334.52 638.956 330.96 637.196 326.72C635.436 322.48 634.556 317.6 634.556 312.08C634.556 307.52 635.716 302.96 638.036 298.4C640.356 293.84 644.316 289.72 649.916 286.04C655.596 282.28 663.116 279.2 672.476 276.8C681.916 274.32 693.716 272.92 707.876 272.6V266.24C707.876 258.48 706.236 252.8 702.956 249.2C699.676 245.52 694.956 243.68 688.796 243.68C684.236 243.68 680.436 244.24 677.396 245.36C674.356 246.4 671.676 247.56 669.356 248.84C667.116 250.04 664.996 251.2 662.996 252.32C660.996 253.36 658.676 253.88 656.036 253.88C653.716 253.88 651.756 253.32 650.156 252.2C648.636 251 647.356 249.6 646.316 248L640.436 237.44ZM806.853 345.92C801.253 345.92 796.293 345.12 791.973 343.52C787.653 341.84 784.013 339.48 781.053 336.44C778.093 333.4 775.853 329.72 774.333 325.4C772.813 321.08 772.053 316.2 772.053 310.76V244.04H760.413C758.653 244.04 757.133 243.48 755.853 242.36C754.653 241.24 754.053 239.56 754.053 237.32V224.36L773.853 220.76L780.573 188.72C781.453 185.12 783.893 183.32 787.893 183.32H805.173V221H837.093V244.04H805.173V308.6C805.173 312.04 805.973 314.76 807.573 316.76C809.253 318.76 811.613 319.76 814.653 319.76C816.253 319.76 817.613 319.6 818.733 319.28C819.853 318.88 820.813 318.48 821.613 318.08C822.413 317.6 823.133 317.2 823.773 316.88C824.493 316.48 825.213 316.28 825.933 316.28C826.893 316.28 827.693 316.52 828.333 317C828.973 317.4 829.613 318.12 830.253 319.16L840.213 335C835.653 338.6 830.493 341.32 824.733 343.16C818.973 345 813.013 345.92 806.853 345.92ZM885.916 240.68C889.836 233.64 894.356 228.08 899.476 224C904.596 219.92 910.596 217.88 917.476 217.88C923.076 217.88 927.636 219.2 931.156 221.84L928.996 246.32C928.596 247.92 927.956 249.04 927.076 249.68C926.276 250.24 925.156 250.52 923.716 250.52C922.436 250.52 920.596 250.36 918.196 250.04C915.796 249.64 913.556 249.44 911.476 249.44C908.436 249.44 905.716 249.88 903.316 250.76C900.996 251.64 898.916 252.88 897.076 254.48C895.236 256.08 893.556 258.04 892.036 260.36C890.596 262.68 889.236 265.32 887.956 268.28V344H854.836V220.28H874.396C877.756 220.28 880.076 220.88 881.356 222.08C882.636 223.28 883.556 225.36 884.116 228.32L885.916 240.68ZM1008.58 292.28C1000.5 292.68 993.779 293.4 988.419 294.44C983.059 295.4 978.779 296.68 975.579 298.28C972.459 299.88 970.219 301.72 968.859 303.8C967.579 305.8 966.939 308 966.939 310.4C966.939 315.2 968.259 318.6 970.899 320.6C973.619 322.6 977.379 323.6 982.179 323.6C987.699 323.6 992.459 322.64 996.459 320.72C1000.54 318.72 1004.58 315.64 1008.58 311.48V292.28ZM941.139 237.44C948.419 230.88 956.459 226 965.259 222.8C974.059 219.52 983.579 217.88 993.819 217.88C1001.18 217.88 1007.74 219.08 1013.5 221.48C1019.34 223.88 1024.26 227.24 1028.26 231.56C1032.34 235.8 1035.46 240.88 1037.62 246.8C1039.78 252.72 1040.86 259.2 1040.86 266.24V344H1025.74C1022.62 344 1020.22 343.56 1018.54 342.68C1016.94 341.8 1015.62 339.96 1014.58 337.16L1011.94 329.24C1008.82 331.96 1005.78 334.36 1002.82 336.44C999.939 338.52 996.939 340.28 993.819 341.72C990.699 343.08 987.339 344.12 983.739 344.84C980.219 345.56 976.259 345.92 971.859 345.92C966.419 345.92 961.459 345.2 956.979 343.76C952.499 342.32 948.619 340.2 945.339 337.4C942.139 334.52 939.659 330.96 937.899 326.72C936.139 322.48 935.259 317.6 935.259 312.08C935.259 307.52 936.419 302.96 938.739 298.4C941.059 293.84 945.019 289.72 950.619 286.04C956.299 282.28 963.819 279.2 973.179 276.8C982.619 274.32 994.419 272.92 1008.58 272.6V266.24C1008.58 258.48 1006.94 252.8 1003.66 249.2C1000.38 245.52 995.659 243.68 989.499 243.68C984.939 243.68 981.139 244.24 978.099 245.36C975.059 246.4 972.379 247.56 970.059 248.84C967.819 250.04 965.699 251.2 963.699 252.32C961.699 253.36 959.379 253.88 956.739 253.88C954.419 253.88 952.459 253.32 950.859 252.2C949.339 251 948.059 249.6 947.019 248L941.139 237.44Z" fill="#274C77"/>
<path d="M480.575 437.592C484.22 437.592 487.325 437.165 489.89 436.31C492.5 435.455 494.615 434.285 496.235 432.8C497.9 431.315 499.115 429.56 499.88 427.535C500.645 425.465 501.028 423.215 501.028 420.785C501.028 415.97 499.363 412.19 496.033 409.445C492.703 406.655 487.55 405.26 480.575 405.26H460.325V437.592H480.575ZM460.325 363.342V395.067H476.863C483.928 395.067 489.17 393.65 492.59 390.815C496.055 387.935 497.788 384.065 497.788 379.205C497.788 373.67 496.145 369.642 492.86 367.122C489.575 364.602 484.468 363.342 477.538 363.342H460.325ZM477.538 352.07C483.613 352.07 488.81 352.655 493.13 353.825C497.495 354.995 501.073 356.682 503.863 358.887C506.653 361.092 508.7 363.77 510.005 366.92C511.355 370.025 512.03 373.557 512.03 377.517C512.03 379.857 511.67 382.107 510.95 384.267C510.23 386.427 509.128 388.452 507.643 390.342C506.158 392.187 504.29 393.852 502.04 395.337C499.79 396.822 497.135 398.06 494.075 399.05C508.16 401.84 515.203 409.197 515.203 421.122C515.203 425.262 514.438 429.042 512.908 432.462C511.378 435.837 509.15 438.762 506.225 441.237C503.3 443.712 499.7 445.625 495.425 446.975C491.15 448.325 486.29 449 480.845 449H445.948V352.07H477.538ZM543.37 380.42V449H530.208V380.42H543.37ZM545.868 359.225C545.868 360.44 545.62 361.61 545.125 362.735C544.63 363.815 543.955 364.782 543.1 365.637C542.29 366.447 541.323 367.1 540.198 367.595C539.073 368.045 537.903 368.27 536.688 368.27C535.473 368.27 534.325 368.045 533.245 367.595C532.165 367.1 531.198 366.447 530.343 365.637C529.533 364.782 528.88 363.815 528.385 362.735C527.935 361.61 527.71 360.44 527.71 359.225C527.71 357.965 527.935 356.795 528.385 355.715C528.88 354.59 529.533 353.622 530.343 352.812C531.198 351.957 532.165 351.305 533.245 350.855C534.325 350.36 535.473 350.112 536.688 350.112C537.903 350.112 539.073 350.36 540.198 350.855C541.323 351.305 542.29 351.957 543.1 352.812C543.955 353.622 544.63 354.59 545.125 355.715C545.62 356.795 545.868 357.965 545.868 359.225ZM574.78 389.937C576.265 388.362 577.817 386.922 579.437 385.617C581.057 384.312 582.767 383.21 584.567 382.31C586.412 381.365 588.37 380.645 590.44 380.15C592.555 379.61 594.805 379.34 597.19 379.34C600.97 379.34 604.277 379.97 607.112 381.23C609.992 382.49 612.4 384.267 614.335 386.562C616.27 388.812 617.732 391.535 618.722 394.73C619.712 397.925 620.207 401.457 620.207 405.327V449H606.977V405.327C606.977 400.422 605.852 396.62 603.602 393.92C601.352 391.175 597.91 389.802 593.275 389.802C589.9 389.802 586.727 390.612 583.757 392.232C580.832 393.807 578.11 395.967 575.59 398.712V449H562.427V380.42H570.325C572.17 380.42 573.317 381.297 573.767 383.052L574.78 389.937ZM674.824 418.557C669.469 418.737 664.924 419.165 661.189 419.84C657.454 420.47 654.417 421.325 652.077 422.405C649.737 423.485 648.049 424.767 647.014 426.252C645.979 427.692 645.462 429.312 645.462 431.112C645.462 432.822 645.732 434.307 646.272 435.567C646.857 436.782 647.622 437.795 648.567 438.605C649.557 439.37 650.704 439.932 652.009 440.292C653.314 440.652 654.732 440.832 656.262 440.832C658.287 440.832 660.132 440.63 661.797 440.225C663.507 439.82 665.104 439.257 666.589 438.537C668.074 437.772 669.492 436.85 670.842 435.77C672.192 434.69 673.519 433.452 674.824 432.057V418.557ZM636.214 390.005C640.039 386.36 644.179 383.637 648.634 381.837C653.134 380.037 658.062 379.137 663.417 379.137C667.332 379.137 670.797 379.79 673.812 381.095C676.827 382.355 679.369 384.132 681.439 386.427C683.509 388.722 685.062 391.467 686.097 394.662C687.177 397.857 687.717 401.39 687.717 405.26V449H681.844C680.539 449 679.549 448.797 678.874 448.392C678.199 447.942 677.659 447.132 677.254 445.962L675.837 439.955C674.082 441.575 672.349 443.015 670.639 444.275C668.929 445.49 667.129 446.547 665.239 447.447C663.394 448.302 661.414 448.955 659.299 449.405C657.184 449.855 654.844 450.08 652.279 450.08C649.579 450.08 647.037 449.72 644.652 449C642.312 448.235 640.264 447.087 638.509 445.557C636.754 444.027 635.359 442.115 634.324 439.82C633.334 437.525 632.839 434.847 632.839 431.787C632.839 429.087 633.559 426.5 634.999 424.025C636.484 421.505 638.869 419.255 642.154 417.275C645.484 415.295 649.804 413.675 655.114 412.415C660.469 411.155 667.039 410.435 674.824 410.255V405.26C674.824 400.085 673.722 396.215 671.517 393.65C669.312 391.085 666.072 389.802 661.797 389.802C658.917 389.802 656.487 390.162 654.507 390.882C652.572 391.602 650.884 392.412 649.444 393.312C648.049 394.167 646.812 394.955 645.732 395.675C644.697 396.395 643.617 396.755 642.492 396.755C641.592 396.755 640.804 396.507 640.129 396.012C639.499 395.517 638.982 394.932 638.577 394.257L636.214 390.005ZM804.178 364.085H773.398V449H759.088V364.085H728.173V352.07H804.178V364.085ZM828.663 380.42V449H815.501V380.42H828.663ZM831.161 359.225C831.161 360.44 830.913 361.61 830.418 362.735C829.923 363.815 829.248 364.782 828.393 365.637C827.583 366.447 826.616 367.1 825.491 367.595C824.366 368.045 823.196 368.27 821.981 368.27C820.766 368.27 819.618 368.045 818.538 367.595C817.458 367.1 816.491 366.447 815.636 365.637C814.826 364.782 814.173 363.815 813.678 362.735C813.228 361.61 813.003 360.44 813.003 359.225C813.003 357.965 813.228 356.795 813.678 355.715C814.173 354.59 814.826 353.622 815.636 352.812C816.491 351.957 817.458 351.305 818.538 350.855C819.618 350.36 820.766 350.112 821.981 350.112C823.196 350.112 824.366 350.36 825.491 350.855C826.616 351.305 827.583 351.957 828.393 352.812C829.248 353.622 829.923 354.59 830.418 355.715C830.913 356.795 831.161 357.965 831.161 359.225ZM860.14 393.582C862.345 389.082 865 385.55 868.105 382.985C871.21 380.42 874.945 379.137 879.31 379.137C880.795 379.137 882.19 379.317 883.495 379.677C884.845 379.992 886.015 380.487 887.005 381.163L886.128 391.085C885.813 392.3 885.07 392.907 883.9 392.907C883.27 392.907 882.325 392.795 881.065 392.57C879.805 392.3 878.455 392.165 877.015 392.165C874.9 392.165 873.033 392.48 871.413 393.11C869.793 393.695 868.33 394.595 867.025 395.81C865.765 396.98 864.64 398.442 863.65 400.197C862.66 401.907 861.738 403.865 860.883 406.07V449H847.72V380.42H855.28C856.72 380.42 857.688 380.69 858.183 381.23C858.723 381.725 859.105 382.625 859.33 383.93L860.14 393.582ZM918.624 450.08C913.089 450.08 908.814 448.527 905.799 445.422C902.829 442.317 901.344 437.885 901.344 432.125V391.085H893.379C892.614 391.085 891.961 390.86 891.421 390.41C890.926 389.915 890.679 389.195 890.679 388.25V382.917L901.816 381.365L904.786 360.912C904.966 360.147 905.304 359.562 905.799 359.157C906.339 358.707 907.014 358.482 907.824 358.482H914.506V381.5H933.946V391.085H914.506V431.247C914.506 433.947 915.159 435.972 916.464 437.322C917.814 438.627 919.524 439.28 921.594 439.28C922.809 439.28 923.844 439.122 924.699 438.807C925.599 438.492 926.364 438.155 926.994 437.795C927.624 437.39 928.164 437.03 928.614 436.715C929.064 436.4 929.469 436.242 929.829 436.242C930.279 436.242 930.616 436.355 930.841 436.58C931.111 436.76 931.381 437.075 931.651 437.525L935.566 443.87C933.406 445.85 930.841 447.38 927.871 448.46C924.901 449.54 921.819 450.08 918.624 450.08ZM982.925 418.557C977.57 418.737 973.025 419.165 969.29 419.84C965.555 420.47 962.517 421.325 960.177 422.405C957.837 423.485 956.15 424.767 955.115 426.252C954.08 427.692 953.562 429.312 953.562 431.112C953.562 432.822 953.832 434.307 954.372 435.567C954.957 436.782 955.722 437.795 956.667 438.605C957.657 439.37 958.805 439.932 960.11 440.292C961.415 440.652 962.832 440.832 964.362 440.832C966.387 440.832 968.232 440.63 969.897 440.225C971.607 439.82 973.205 439.257 974.69 438.537C976.175 437.772 977.592 436.85 978.942 435.77C980.292 434.69 981.62 433.452 982.925 432.057V418.557ZM944.315 390.005C948.14 386.36 952.28 383.637 956.735 381.837C961.235 380.037 966.162 379.137 971.517 379.137C975.432 379.137 978.897 379.79 981.912 381.095C984.927 382.355 987.47 384.132 989.54 386.427C991.61 388.722 993.162 391.467 994.197 394.662C995.277 397.857 995.817 401.39 995.817 405.26V449H989.945C988.64 449 987.65 448.797 986.975 448.392C986.3 447.942 985.76 447.132 985.355 445.962L983.937 439.955C982.182 441.575 980.45 443.015 978.74 444.275C977.03 445.49 975.23 446.547 973.34 447.447C971.495 448.302 969.515 448.955 967.4 449.405C965.285 449.855 962.945 450.08 960.38 450.08C957.68 450.08 955.137 449.72 952.752 449C950.412 448.235 948.365 447.087 946.61 445.557C944.855 444.027 943.46 442.115 942.425 439.82C941.435 437.525 940.94 434.847 940.94 431.787C940.94 429.087 941.66 426.5 943.1 424.025C944.585 421.505 946.97 419.255 950.255 417.275C953.585 415.295 957.905 413.675 963.215 412.415C968.57 411.155 975.14 410.435 982.925 410.255V405.26C982.925 400.085 981.822 396.215 979.617 393.65C977.412 391.085 974.172 389.802 969.897 389.802C967.017 389.802 964.587 390.162 962.607 390.882C960.672 391.602 958.985 392.412 957.545 393.312C956.15 394.167 954.912 394.955 953.832 395.675C952.797 396.395 951.717 396.755 950.592 396.755C949.692 396.755 948.905 396.507 948.23 396.012C947.6 395.517 947.082 394.932 946.677 394.257L944.315 390.005ZM1112.28 364.085H1081.5V449H1067.19V364.085H1036.27V352.07H1112.28V364.085ZM1152.6 407.082C1152.6 404.472 1152.22 402.065 1151.45 399.86C1150.73 397.655 1149.65 395.742 1148.21 394.122C1146.77 392.502 1145.02 391.242 1142.95 390.342C1140.88 389.442 1138.49 388.992 1135.79 388.992C1130.26 388.992 1125.89 390.59 1122.7 393.785C1119.55 396.98 1117.55 401.412 1116.69 407.082H1152.6ZM1163.47 439.212C1161.85 441.102 1159.98 442.745 1157.87 444.14C1155.75 445.49 1153.5 446.592 1151.12 447.447C1148.73 448.302 1146.26 448.932 1143.69 449.338C1141.17 449.743 1138.67 449.945 1136.2 449.945C1131.47 449.945 1127.09 449.157 1123.04 447.582C1119.03 445.962 1115.54 443.622 1112.57 440.562C1109.65 437.457 1107.35 433.632 1105.69 429.087C1104.07 424.497 1103.26 419.232 1103.26 413.292C1103.26 408.522 1104 404.09 1105.49 399.995C1106.97 395.855 1109.09 392.255 1111.83 389.195C1114.62 386.135 1118.02 383.727 1122.02 381.972C1126.03 380.217 1130.53 379.34 1135.52 379.34C1139.71 379.34 1143.56 380.037 1147.07 381.432C1150.62 382.782 1153.68 384.762 1156.25 387.372C1158.81 389.982 1160.81 393.2 1162.25 397.025C1163.74 400.85 1164.48 405.215 1164.48 410.12C1164.48 412.145 1164.26 413.517 1163.81 414.237C1163.36 414.912 1162.52 415.25 1161.31 415.25H1116.35C1116.49 419.345 1117.07 422.922 1118.11 425.982C1119.14 428.997 1120.56 431.517 1122.36 433.542C1124.21 435.567 1126.39 437.075 1128.91 438.065C1131.43 439.055 1134.24 439.55 1137.35 439.55C1140.27 439.55 1142.79 439.212 1144.91 438.537C1147.07 437.862 1148.91 437.142 1150.44 436.377C1152.02 435.567 1153.32 434.825 1154.36 434.15C1155.44 433.475 1156.38 433.137 1157.19 433.137C1158.27 433.137 1159.1 433.542 1159.69 434.352L1163.47 439.212ZM1191.79 349.37V407.622H1194.9C1195.84 407.622 1196.63 407.487 1197.26 407.217C1197.89 406.947 1198.54 406.407 1199.22 405.597L1219.74 382.985C1220.37 382.13 1221.06 381.5 1221.83 381.095C1222.59 380.645 1223.56 380.42 1224.73 380.42H1236.75L1212.51 406.947C1211.21 408.612 1209.81 409.895 1208.33 410.795C1209.18 411.38 1209.93 412.055 1210.56 412.82C1211.23 413.585 1211.88 414.417 1212.51 415.317L1238.3 449H1226.49C1225.41 449 1224.46 448.82 1223.65 448.46C1222.89 448.1 1222.19 447.447 1221.56 446.502L1200.36 418.962C1199.69 417.927 1199.01 417.275 1198.34 417.005C1197.66 416.69 1196.65 416.532 1195.3 416.532H1191.79V449H1178.63V349.37H1191.79ZM1260.46 389.937C1261.94 388.362 1263.5 386.922 1265.12 385.617C1266.74 384.312 1268.45 383.21 1270.25 382.31C1272.09 381.365 1274.05 380.645 1276.12 380.15C1278.23 379.61 1280.48 379.34 1282.87 379.34C1286.65 379.34 1289.96 379.97 1292.79 381.23C1295.67 382.49 1298.08 384.267 1300.01 386.562C1301.95 388.812 1303.41 391.535 1304.4 394.73C1305.39 397.925 1305.89 401.457 1305.89 405.327V449H1292.66V405.327C1292.66 400.422 1291.53 396.62 1289.28 393.92C1287.03 391.175 1283.59 389.802 1278.95 389.802C1275.58 389.802 1272.41 390.612 1269.44 392.232C1266.51 393.807 1263.79 395.967 1261.27 398.712V449H1248.11V380.42H1256C1257.85 380.42 1259 381.297 1259.45 383.052L1260.46 389.937ZM1352.88 379.34C1357.92 379.34 1362.46 380.172 1366.51 381.837C1370.61 383.457 1374.07 385.82 1376.91 388.925C1379.79 391.985 1381.99 395.697 1383.52 400.062C1385.05 404.382 1385.82 409.242 1385.82 414.642C1385.82 420.042 1385.05 424.925 1383.52 429.29C1381.99 433.655 1379.79 437.367 1376.91 440.427C1374.07 443.487 1370.61 445.85 1366.51 447.515C1362.46 449.135 1357.92 449.945 1352.88 449.945C1347.79 449.945 1343.2 449.135 1339.11 447.515C1335.06 445.85 1331.59 443.487 1328.71 440.427C1325.83 437.367 1323.6 433.655 1322.03 429.29C1320.5 424.925 1319.73 420.042 1319.73 414.642C1319.73 409.242 1320.5 404.382 1322.03 400.062C1323.6 395.697 1325.83 391.985 1328.71 388.925C1331.59 385.82 1335.06 383.457 1339.11 381.837C1343.2 380.172 1347.79 379.34 1352.88 379.34ZM1352.88 439.685C1359.36 439.685 1364.19 437.502 1367.39 433.137C1370.58 428.772 1372.18 422.63 1372.18 414.71C1372.18 406.79 1370.58 400.647 1367.39 396.282C1364.19 391.872 1359.36 389.667 1352.88 389.667C1346.31 389.667 1341.4 391.872 1338.16 396.282C1334.97 400.647 1333.37 406.79 1333.37 414.71C1333.37 422.63 1334.97 428.772 1338.16 433.137C1341.4 437.502 1346.31 439.685 1352.88 439.685ZM1414.01 349.37V449H1400.78V349.37H1414.01ZM1462.04 379.34C1467.08 379.34 1471.62 380.172 1475.67 381.837C1479.77 383.457 1483.23 385.82 1486.07 388.925C1488.95 391.985 1491.15 395.697 1492.68 400.062C1494.21 404.382 1494.98 409.242 1494.98 414.642C1494.98 420.042 1494.21 424.925 1492.68 429.29C1491.15 433.655 1488.95 437.367 1486.07 440.427C1483.23 443.487 1479.77 445.85 1475.67 447.515C1471.62 449.135 1467.08 449.945 1462.04 449.945C1456.95 449.945 1452.36 449.135 1448.27 447.515C1444.22 445.85 1440.75 443.487 1437.87 440.427C1434.99 437.367 1432.76 433.655 1431.19 429.29C1429.66 424.925 1428.89 420.042 1428.89 414.642C1428.89 409.242 1429.66 404.382 1431.19 400.062C1432.76 395.697 1434.99 391.985 1437.87 388.925C1440.75 385.82 1444.22 383.457 1448.27 381.837C1452.36 380.172 1456.95 379.34 1462.04 379.34ZM1462.04 439.685C1468.52 439.685 1473.35 437.502 1476.55 433.137C1479.74 428.772 1481.34 422.63 1481.34 414.71C1481.34 406.79 1479.74 400.647 1476.55 396.282C1473.35 391.872 1468.52 389.667 1462.04 389.667C1455.47 389.667 1450.56 391.872 1447.32 396.282C1444.13 400.647 1442.53 406.79 1442.53 414.71C1442.53 422.63 1444.13 428.772 1447.32 433.137C1450.56 437.502 1455.47 439.685 1462.04 439.685ZM1533.37 414.777C1535.71 414.777 1537.76 414.462 1539.51 413.832C1541.31 413.202 1542.8 412.325 1543.97 411.2C1545.18 410.03 1546.08 408.635 1546.67 407.015C1547.3 405.395 1547.61 403.617 1547.61 401.682C1547.61 397.722 1546.4 394.572 1543.97 392.232C1541.58 389.847 1538.05 388.655 1533.37 388.655C1528.74 388.655 1525.2 389.847 1522.77 392.232C1520.39 394.572 1519.2 397.722 1519.2 401.682C1519.2 403.617 1519.49 405.395 1520.07 407.015C1520.7 408.59 1521.6 409.962 1522.77 411.132C1523.99 412.257 1525.47 413.157 1527.23 413.832C1529.03 414.462 1531.08 414.777 1533.37 414.777ZM1554.36 452.578C1554.36 450.958 1553.91 449.675 1553.01 448.73C1552.11 447.74 1550.88 446.975 1549.3 446.435C1547.77 445.85 1545.97 445.445 1543.9 445.22C1541.83 444.95 1539.65 444.747 1537.35 444.612C1535.1 444.477 1532.79 444.365 1530.4 444.275C1528.02 444.14 1525.72 443.915 1523.52 443.6C1521.18 444.77 1519.24 446.187 1517.71 447.852C1516.23 449.518 1515.48 451.475 1515.48 453.725C1515.48 455.165 1515.84 456.515 1516.56 457.775C1517.33 459.035 1518.48 460.115 1520.01 461.015C1521.58 461.96 1523.54 462.68 1525.88 463.175C1528.26 463.715 1531.1 463.985 1534.38 463.985C1537.62 463.985 1540.48 463.693 1542.96 463.108C1545.43 462.568 1547.5 461.78 1549.17 460.745C1550.88 459.755 1552.16 458.563 1553.01 457.168C1553.91 455.773 1554.36 454.243 1554.36 452.578ZM1567.73 382.985V387.912C1567.73 389.532 1566.72 390.545 1564.69 390.95L1557.33 392.03C1557.96 393.425 1558.46 394.91 1558.82 396.485C1559.18 398.015 1559.36 399.635 1559.36 401.345C1559.36 404.72 1558.71 407.78 1557.4 410.525C1556.1 413.225 1554.3 415.542 1552 417.477C1549.71 419.412 1546.96 420.897 1543.77 421.932C1540.62 422.967 1537.15 423.485 1533.37 423.485C1530.27 423.485 1527.36 423.147 1524.66 422.472C1523.31 423.282 1522.28 424.182 1521.56 425.172C1520.88 426.117 1520.55 427.062 1520.55 428.007C1520.55 429.582 1521.2 430.752 1522.5 431.517C1523.85 432.282 1525.59 432.845 1527.7 433.205C1529.86 433.52 1532.31 433.722 1535.06 433.812C1537.85 433.902 1540.66 434.06 1543.5 434.285C1546.38 434.465 1549.19 434.825 1551.93 435.365C1554.72 435.86 1557.18 436.692 1559.29 437.862C1561.45 438.987 1563.18 440.562 1564.49 442.587C1565.84 444.567 1566.51 447.155 1566.51 450.35C1566.51 453.32 1565.77 456.2 1564.29 458.99C1562.85 461.78 1560.73 464.255 1557.94 466.415C1555.15 468.575 1551.75 470.308 1547.75 471.613C1543.74 472.918 1539.2 473.57 1534.11 473.57C1529.03 473.57 1524.6 473.075 1520.82 472.085C1517.08 471.095 1513.95 469.768 1511.43 468.103C1508.96 466.438 1507.09 464.503 1505.83 462.298C1504.62 460.093 1504.01 457.798 1504.01 455.413C1504.01 452.083 1505.04 449.27 1507.11 446.975C1509.18 444.635 1512.04 442.812 1515.69 441.507C1513.71 440.607 1512.13 439.392 1510.96 437.862C1509.79 436.287 1509.21 434.217 1509.21 431.653C1509.21 430.662 1509.39 429.65 1509.75 428.615C1510.11 427.535 1510.65 426.477 1511.37 425.442C1512.13 424.362 1513.05 423.35 1514.13 422.405C1515.26 421.46 1516.54 420.605 1517.98 419.84C1514.61 417.95 1511.95 415.452 1510.02 412.347C1508.08 409.197 1507.11 405.53 1507.11 401.345C1507.11 397.97 1507.77 394.932 1509.07 392.232C1510.38 389.532 1512.18 387.215 1514.47 385.28C1516.81 383.345 1519.58 381.86 1522.77 380.825C1526.01 379.79 1529.55 379.273 1533.37 379.273C1539.31 379.273 1544.42 380.51 1548.69 382.985H1567.73ZM1593.58 380.42V449H1580.41V380.42H1593.58ZM1596.07 359.225C1596.07 360.44 1595.83 361.61 1595.33 362.735C1594.84 363.815 1594.16 364.782 1593.31 365.637C1592.5 366.447 1591.53 367.1 1590.4 367.595C1589.28 368.045 1588.11 368.27 1586.89 368.27C1585.68 368.27 1584.53 368.045 1583.45 367.595C1582.37 367.1 1581.4 366.447 1580.55 365.637C1579.74 364.782 1579.09 363.815 1578.59 362.735C1578.14 361.61 1577.92 360.44 1577.92 359.225C1577.92 357.965 1578.14 356.795 1578.59 355.715C1579.09 354.59 1579.74 353.622 1580.55 352.812C1581.4 351.957 1582.37 351.305 1583.45 350.855C1584.53 350.36 1585.68 350.112 1586.89 350.112C1588.11 350.112 1589.28 350.36 1590.4 350.855C1591.53 351.305 1592.5 351.957 1593.31 352.812C1594.16 353.622 1594.84 354.59 1595.33 355.715C1595.83 356.795 1596.07 357.965 1596.07 359.225Z" fill="#274C77"/>
<path d="M312.8 389C322.4 389 330.267 387.867 336.4 385.6C342.667 383.2 347.667 380.067 351.4 376.2C355.133 372.333 357.733 367.933 359.2 363C360.667 357.933 361.4 352.733 361.4 347.4C361.4 341.533 360.533 336.267 358.8 331.6C357.067 326.933 354.267 323 350.4 319.8C346.533 316.467 341.467 313.933 335.2 312.2C329.067 310.467 321.467 309.6 312.4 309.6H261.4V389H312.8ZM261.4 190.4V268.8H300.8C309.2 268.8 316.667 268.133 323.2 266.8C329.733 265.333 335.2 263.067 339.6 260C344 256.933 347.333 252.933 349.6 248C352 242.933 353.2 236.867 353.2 229.8C353.2 222.6 352.2 216.467 350.2 211.4C348.333 206.333 345.4 202.267 341.4 199.2C337.4 196.133 332.333 193.933 326.2 192.6C320.067 191.133 312.8 190.4 304.4 190.4H261.4ZM304.4 144.8C323.867 144.8 340.467 146.667 354.2 150.4C368.067 154 379.333 159.2 388 166C396.8 172.667 403.2 180.8 407.2 190.4C411.2 200 413.2 210.733 413.2 222.6C413.2 229.267 412.2 235.667 410.2 241.8C408.333 247.933 405.333 253.733 401.2 259.2C397.2 264.533 392 269.4 385.6 273.8C379.2 278.2 371.6 281.933 362.8 285C382.533 289.667 397.133 297.267 406.6 307.8C416.067 318.333 420.8 332 420.8 348.8C420.8 361.067 418.4 372.467 413.6 383C408.933 393.533 402.067 402.667 393 410.4C383.933 418.133 372.733 424.2 359.4 428.6C346.2 432.867 331 435 313.8 435H201.4V144.8H304.4Z" fill="#274C77"/>
</svg>
